<?xml version="1.0" encoding="utf-8"?>
<!-- Generator: Adobe Illustrator 19.2.1, SVG Export Plug-In . SVG Version: 6.00 Build 0)  -->
<svg version="1.1" id="Layer_1" xmlns="http://www.w3.org/2000/svg" xmlns:xlink="http://www.w3.org/1999/xlink" x="0px" y="0px"
	 viewBox="0 0 124 150" style="enable-background:new 0 0 124 150;" xml:space="preserve">
<style type="text/css">
	.st0{fill:#B3B4B4;stroke:#B3B4B4;stroke-miterlimit:10;}
	.st1{fill:#B4B4B4;stroke:#B3B4B4;stroke-miterlimit:10;}
	.st2{fill:none;stroke:#B3B3B3;stroke-width:3;stroke-miterlimit:10;}
	.st3{fill:none;stroke:#B3B3B3;stroke-width:3;stroke-linecap:round;stroke-miterlimit:10;}
</style>
<g>
	<polygon class="st0" points="61.1,81.5 57.8,81.5 57.8,66.7 42.8,66.7 42.8,63.4 61.1,63.4 	"/>
	<path class="st1" d="M59.5,83.2h-1.2L41.6,65.8V37.3h17.9c12.6,0,22.9,10.3,22.9,22.9C82.4,72.9,72.1,83.2,59.5,83.2z M44.9,64.4
		l14.8,15.4c10.7-0.1,19.3-8.9,19.3-19.6c0-10.8-8.8-19.6-19.6-19.6H44.9V64.4z"/>
</g>
<g>
	<path class="st2" d="M120.9,147.1H20.8c-9.7,0-17.7-7.9-17.7-17.7V20.5c0-9.7,8-17.7,17.7-17.7h82.4c9.7,0,17.7,8,17.7,17.7V147.1z
		"/>
	<path class="st2" d="M120.9,106.7H24.5c0,0-21.7-1.8-21.3,22.8"/>
</g>
<line class="st3" x1="39.9" y1="128.1" x2="120.9" y2="128.1"/>
</svg>
