<svg id="Layer_1" data-name="Layer 1" xmlns="http://www.w3.org/2000/svg" viewBox="0 0 119.09 39.64"><defs><style>.cls-1{fill:#f1f2f2;}.cls-2{fill:#4bb96c;}</style></defs><title>logo</title><polygon class="cls-1" points="16.89 37.99 14.03 37.99 14.03 25.27 1.15 25.27 1.15 22.4 16.89 22.4 16.89 37.99"/><path class="cls-1" d="M16,43.42H15l-14.4-15V4H16A19.73,19.73,0,1,1,16,43.42ZM3.42,27.28L16.17,40.56A16.87,16.87,0,0,0,16,6.82H3.42V27.28Z" transform="translate(-0.45 -3.96)"/><path class="cls-1" d="M2.52,39.46A2.07,2.07,0,1,1,.45,41.53,2.07,2.07,0,0,1,2.52,39.46Zm0,3.86A1.79,1.79,0,1,0,.73,41.53,1.8,1.8,0,0,0,2.52,43.32Zm0.62-2.47a0.88,0.88,0,1,0-.58,1.57,0.92,0.92,0,0,0,.65-0.25l0.16,0.21a1.22,1.22,0,0,1-.81.3,1.17,1.17,0,0,1,0-2.33,1.08,1.08,0,0,1,.76.3Z" transform="translate(-0.45 -3.96)"/><path class="cls-2" d="M44.22,33.53V23h3.15A5.72,5.72,0,0,1,51,24a5.38,5.38,0,0,1,0,8.52,5.77,5.77,0,0,1-3.61,1H44.22Zm6.07-8.19a4.26,4.26,0,0,0-3-.88H45.72v7.65h1.57a4.26,4.26,0,0,0,3-.88A4,4,0,0,0,50.29,25.34Z" transform="translate(-0.45 -3.96)"/><path class="cls-2" d="M62.19,22.88a5.23,5.23,0,0,1,5.25,5.4,5.25,5.25,0,1,1-10.5,0A5.23,5.23,0,0,1,62.19,22.88Zm0,9.37a3.77,3.77,0,0,0,3.75-4,3.76,3.76,0,1,0-7.5,0A3.77,3.77,0,0,0,62.19,32.26Z" transform="translate(-0.45 -3.96)"/><path class="cls-2" d="M76.62,22.88a5.23,5.23,0,0,1,3.84,1.62l-1,1a4,4,0,0,0-2.83-1.18,3.83,3.83,0,0,0-3.81,4,3.82,3.82,0,0,0,3.94,4,3.93,3.93,0,0,0,3-1.48l1.07,1A5.39,5.39,0,1,1,76.62,22.88Z" transform="translate(-0.45 -3.96)"/><path class="cls-2" d="M92.64,28.16H85.89v5.37H85V23h0.9v4.27h6.75V23h0.9v10.5h-0.9V28.16Z" transform="translate(-0.45 -3.96)"/><path class="cls-2" d="M99.36,31.78a4.29,4.29,0,0,1-.61-2.44V23h0.9v6.34a3.43,3.43,0,0,0,.46,2,3.43,3.43,0,0,0,5.67,0,3.43,3.43,0,0,0,.46-2V23h0.9v6.3a4.28,4.28,0,0,1-.62,2.44A4.33,4.33,0,0,1,99.36,31.78Z" transform="translate(-0.45 -3.96)"/><path class="cls-2" d="M117.7,27.58a3.15,3.15,0,0,1,1.84,2.85,3.09,3.09,0,0,1-1,2.31,3.38,3.38,0,0,1-2.39.8h-3.78V23h3.43a2.8,2.8,0,0,1,2.05.7A2.54,2.54,0,0,1,117.7,27.58Zm-2-.27a2,2,0,0,0,1.56-.55,1.71,1.71,0,0,0,0-2.31,2,2,0,0,0-1.56-.56h-2.49v3.42h2.49Zm-2.49.86v4.51h2.83A2.51,2.51,0,0,0,118,32a2.25,2.25,0,0,0,0-3.24,2.51,2.51,0,0,0-1.88-.64h-2.83Z" transform="translate(-0.45 -3.96)"/></svg>