<?xml version="1.0" encoding="utf-8"?>
<!-- Generator: Adobe Illustrator 19.2.1, SVG Export Plug-In . SVG Version: 6.00 Build 0)  -->
<svg version="1.1" id="Layer_1" xmlns="http://www.w3.org/2000/svg" xmlns:xlink="http://www.w3.org/1999/xlink" x="0px" y="0px"
	 viewBox="0 0 158.9 39.6" style="enable-background:new 0 0 158.9 39.6;" xml:space="preserve">
<style type="text/css">
	.st0{fill:#F1F2F2;}
	.st1{fill:#4BB96C;}
</style>
<title>logo</title>
<polygon class="st0" points="16.9,38 14,38 14,25.3 1.1,25.3 1.1,22.4 16.9,22.4 "/>
<path class="st0" d="M15.6,39.5h-1l-14.4-15V0h15.4C26.4-0.5,35.7,8,36.1,18.9S28.2,39,17.3,39.5C16.7,39.5,16.1,39.5,15.6,39.5z
	 M3,23.3l12.8,13.3c9.3,0,16.8-7.6,16.8-17c0-9.3-7.6-16.8-17-16.8H3V23.3z"/>
<path class="st0" d="M2.1,35.5c1.1,0,2.1,0.9,2.1,2.1s-0.9,2.1-2.1,2.1S0,38.7,0,37.6l0,0C0,36.4,0.9,35.5,2.1,35.5z M2.1,39.4
	c1,0,1.8-0.8,1.8-1.8s-0.8-1.8-1.8-1.8s-1.8,0.8-1.8,1.8C0.3,38.6,1.1,39.4,2.1,39.4z M2.7,36.9c-0.4-0.3-0.9-0.2-1.2,0.1
	S1.2,38,1.6,38.3c0.1,0.1,0.3,0.2,0.5,0.2c0.2,0,0.5-0.1,0.7-0.2l0.2,0.2c-0.2,0.2-0.5,0.3-0.8,0.3c-0.6-0.1-1.1-0.6-1.1-1.3
	c0.1-0.6,0.5-1,1.1-1.1c0.3,0,0.6,0.1,0.8,0.3L2.7,36.9z"/>
<g>
	<path class="st1" d="M43.8,29.5V13.4h4.8c2-0.1,3.9,0.4,5.5,1.5c3.6,2.8,4.3,7.9,1.5,11.5c-0.4,0.6-0.9,1.1-1.5,1.5
		c-1.6,1.1-3.6,1.6-5.5,1.5L43.8,29.5L43.8,29.5z M53,17c-1.3-1-2.9-1.5-4.6-1.3h-2.4v11.7h2.4c1.6,0.1,3.3-0.3,4.6-1.3
		c2.5-2.3,2.6-6.2,0.4-8.6C53.3,17.2,53.2,17.1,53,17z"/>
	<path class="st1" d="M71.2,13.2c4.4,0,8,3.5,8,8c0,0.1,0,0.2,0,0.3c0,4.4-3.6,8-8,8s-8-3.6-8-8c-0.1-4.4,3.3-8.1,7.7-8.2
		C71,13.2,71.1,13.2,71.2,13.2z M71.2,27.5c3.2,0,5.8-2.6,5.7-5.8c0-0.1,0-0.2,0-0.3c0.2-3.2-2.1-5.9-5.3-6.1
		c-3.2-0.2-5.9,2.1-6.1,5.3c0,0.3,0,0.6,0,0.8c-0.2,3.2,2.2,5.9,5.4,6.1C71,27.6,71.1,27.6,71.2,27.5L71.2,27.5z"/>
	<path class="st1" d="M93.3,13.2c2.2,0,4.3,0.9,5.9,2.5l-1.5,1.5c-1.1-1.2-2.7-1.8-4.3-1.8c-3.2,0-5.8,2.6-5.8,5.9
		c0,0.1,0,0.2,0,0.2c-0.2,3.2,2.3,6,5.6,6.1c0.2,0,0.3,0,0.5,0c1.8,0,3.5-0.9,4.6-2.3l1.6,1.5c-3,3.4-8.2,3.7-11.6,0.7
		c-3.4-3-3.7-8.2-0.7-11.6C88.9,14.3,91,13.3,93.3,13.2z"/>
	<path class="st1" d="M117.8,21.3h-10.3v8.2h-1.4V13.4h1.4v6.5h10.3v-6.5h1.4v16h-1.4L117.8,21.3L117.8,21.3z"/>
	<path class="st1" d="M128,26.8c-0.7-1.1-1-2.4-0.9-3.7v-9.7h1.4v9.7c-0.1,1.1,0.2,2.1,0.7,3.1c1.6,2.4,4.9,3,7.3,1.4
		c0.5-0.4,1-0.8,1.4-1.4c0.5-0.9,0.8-2,0.7-3.1v-9.7h1.4V23c0.1,1.3-0.3,2.6-0.9,3.7c-2,3-6.1,3.8-9.2,1.8
		C129.1,28.1,128.5,27.5,128,26.8z"/>
	<path class="st1" d="M156,20.4c1.7,0.8,2.8,2.5,2.8,4.4c0,1.3-0.5,2.6-1.5,3.5c-1,0.9-2.3,1.3-3.7,1.2h-5.8V13.4h5.2
		c1.1-0.1,2.3,0.3,3.1,1.1c1.6,1.4,1.7,3.9,0.3,5.5C156.4,20.1,156.2,20.3,156,20.4z M153,20c0.9,0.1,1.7-0.2,2.4-0.8
		c0.9-1,0.9-2.5,0-3.5c-0.6-0.6-1.5-0.9-2.4-0.9h-3.8V20C149.2,20,153,20,153,20z M149.2,21.3v6.9h4.3c1.1,0.1,2.2-0.3,3-1
		c1.4-1.3,1.4-3.5,0.1-4.9c0,0-0.1-0.1-0.1-0.1c-0.8-0.7-1.8-1.1-2.9-1h-4.3L149.2,21.3z"/>
</g>
</svg>
