<svg id="Layer_1" data-name="Layer 1" xmlns="http://www.w3.org/2000/svg" viewBox="0 0 50 31.14"><defs><style>.cls-1{fill:#cdcccc;}</style></defs><title>md</title><g id="_208x128_Cutout" data-name="208x128 Cutout"><path class="cls-1" d="M46.39,31.14H3.61A3.63,3.63,0,0,1,0,27.49V3.65A3.63,3.63,0,0,1,3.61,0H46.39A3.63,3.63,0,0,1,50,3.65V27.49A3.63,3.63,0,0,1,46.39,31.14ZM3.61,2.43A1.21,1.21,0,0,0,2.4,3.65V27.49a1.21,1.21,0,0,0,1.2,1.22H46.39a1.21,1.21,0,0,0,1.2-1.22V3.65a1.21,1.21,0,0,0-1.2-1.22H3.61Z"/><path class="cls-1" d="M7.21,23.84V7.3H12l4.81,6.08L21.63,7.3h4.81V23.84H21.63V14.36l-4.81,6.08L12,14.36v9.49H7.21Z"/><path class="cls-1" d="M37,24.09l-7.21-8.52h4.81V7.3h4.81v8.27h4.81Z"/></g></svg>